# Alias OBJ Model File
# Exported from SketchUp, (c) 2000-2012 Trimble Navigation Limited
# File units = inches

mtllib asteroid.mtl

g Mesh1 brown1 skpAEE3_1 Model

usemtl NemuMat55
v 12.8003 77.5412 139.799
vt 0.448242 0.331055
vn -0.50104 0.0833182 0.861404
v -106.033 73.0462 71.1137
vt 2.22045e-016 1
v -26.0444 -64.0978 130.905
vt 1 1
f 1/1/1 2/2/1 3/3/1

vn -0.345299 0.762224 0.547525
v -8.94186 167.508 0.84265
vt 0.379883 -0.0498047
vt 5.55112e-017 1
f 1/3/2 4/4/2 2/5/2

v 137.57 68.1094 26.4038
vt -0.916992 2.125
vn 0.452901 0.779058 0.433532
vt 4.44089e-016 1
vt -1.33887 0.821289
f 5/6/3 4/7/3 1/8/3

vt 1.2793 1.00684
vn 0.569138 0.755388 -0.324764
v 30.0547 75.8955 -143.903
vt 0.450195 -0.174805
f 5/9/4 6/10/4 4/2/4

vt 0.741211 -0.0898438
vn 0.817543 0.279798 -0.503326
vt -6.66134e-016 1
v 127.637 -64.628 -63.5198
vt 1.04395 1.10937
f 6/11/5 5/12/5 7/13/5

vt -1.39258 1.42773
vn 0.984341 -0.143254 0.102722
vt -4.44089e-016 1
v 114.183 -47.6231 89.1167
vt -0.848633 0.137695
f 7/14/6 5/15/6 8/16/6

vt -2.22045e-016 1
vn 0.661559 0.249509 0.707167
vt 1.16211 0.972656
vt 0.779297 0.134766
f 1/17/7 8/18/7 5/19/7

vn 0.297915 -0.140991 0.944123
vt 0.999023 0.999023
vt 0.658203 0.0576172
f 1/15/8 3/20/8 8/21/8

vt -0.147461 1.02148
vn 0.254393 -0.804701 0.536414
vt -0.693359 0.113281
v -12.2611 -154.307 -10.9588
vt -1.5459 0.988281
f 8/22/9 3/23/9 9/24/9

vt 0.879883 -0.27832
vn -0.512617 -0.746223 0.424706
vt 0.0273438 0.889648
v -126.383 -60.3702 16.3467
vt 1.32617 0.925781
f 9/25/10 3/26/10 10/27/10

vt 0.689453 -0.430664
vn -0.745918 -0.152382 0.648372
vt 0.145508 0.748047
vt 1.56348 0.461914
f 10/28/11 3/29/11 2/30/11

v -141.225 52.1865 -64.922
vt 1.33594 0.776367
vn -0.968774 0.0479011 0.243273
vt 1.05371 -0.245117
vt 0.275391 0.548828
f 11/31/12 10/32/12 2/33/12

v -35.6218 -68.7611 -126.531
vt -0.701172 -0.0878906
vn -0.770764 -0.436637 -0.463972
vt 0 1
vt 0.597656 0.116211
f 12/34/13 10/35/13 11/36/13

vt 1.31738 -0.171875
vn -0.641808 -0.672694 -0.368192
vt 0.361328 0.995117
vt 2.05859 1.08203
f 9/37/14 10/38/14 12/39/14

vt 1.50195 0.925781
vn 0.25374 -0.752232 -0.608082
vt 0.46875 -0.157227
vt -1.11022e-016 0.999023
f 7/40/15 9/41/15 12/42/15

vt 0.682617 -0.139648
vn 0.57118 -0.808721 0.140443
vt 0.0205078 1.03516
vt 1.71289 0.978516
f 7/43/16 8/44/16 9/45/16

vt -0.330078 0.148438
vn 0.35281 -0.267849 -0.896539
vt -1 1
vt -5.55112e-017 1
f 6/46/17 7/47/17 12/48/17

vt 0.427734 -0.0322266
vn -0.42697 0.085746 -0.900191
vt -0.681641 -0.203125
vt -0.44043 0.980469
f 6/49/18 12/50/18 11/51/18

vt 0.573242 0.165039
vn -0.363483 0.739818 -0.566171
vt 2.77556e-017 1
f 6/52/19 11/53/19 4/3/19

vt 0.808594 -0.0673828
vn -0.672977 0.737139 0.0610639
vt 1.01855 0.999023
f 4/54/20 11/5/20 2/55/20

