# Alias OBJ Model File
# Exported from SketchUp, (c) 2000-2012 Trimble Navigation Limited
# File units = inches

mtllib laser.mtl

g Mesh1 Model

usemtl _1
v 0 0 -0
vt 5 0
vn -0.705952 0.705952 -0.0571286
v -6.86225 1.42163e-014 84.7984
vt 6 4.93038e-032
v -4.88498e-015 6.86225 84.7984
vt 5.99349 0.11216
f 1/1/1 2/2/1 3/3/1

vt -7 1.29402e-015
vn -0.705952 -0.705952 -0.0571286
v 6.43929e-015 -6.86225 84.7984
vt -6.0218 -0.110434
vt -6.01539 1.59063e-015
f 1/4/2 4/5/2 2/6/2

vt 6 -3.83912e-015
vn 0.705952 -0.705952 -0.0571286
v 6.86225 1.42163e-014 84.7984
vt 6.98186 -0.110847
vt 6.98829 -6.18447e-015
f 1/7/3 5/8/3 4/9/3

vt -7 0
vn 0.705952 0.705952 -0.0571286
vt -6.01539 -4.35307e-016
f 1/10/4 3/5/4 5/11/4

vt 6.9961 -1.99908
vn 0.681437 0.681437 0.266996
vt 6.99675 -1.98926
v -4.44089e-015 0 102.312
vt 6.97775 -1.99296
f 5/12/5 3/13/5 6/14/5

vn -0.681437 0.681437 0.266996
f 2/13/6 6/14/6 3/12/6

vn -0.681437 -0.681437 0.266996
f 2/12/7 4/13/7 6/14/7

vn 0.681437 -0.681437 0.266996
f 4/12/8 5/13/8 6/14/8

